<svg xmlns="http://www.w3.org/2000/svg" width="90" height="82.24" viewBox="0 0 90 82.24">
  <path id="reasons02.svg" d="M71.723,92.271H63.231l-7.5,16.3-7.5-16.3H39.68l7.756,15.285H43.19v5.661h7.133l1.472,2.831v2.887H43.19V124.6H51.8v7.982h7.869V124.6h8.549v-5.661H59.664v-2.887l1.472-2.831h7.077v-5.661H64.024Zm57.953-17.927A25.087,25.087,0,0,0,127.694,64.1a22.329,22.329,0,0,0-5.322-7.53,22.66,22.66,0,0,0-7.813-4.642,28.482,28.482,0,0,0-18.739,0,23.364,23.364,0,0,0-7.813,4.642A21.914,21.914,0,0,0,82.63,64.1a25.063,25.063,0,0,0-1.981,10.247v33.968a25.055,25.055,0,0,0,1.981,10.247,21.9,21.9,0,0,0,5.378,7.53,23.328,23.328,0,0,0,7.813,4.642,28.482,28.482,0,0,0,18.739,0,22.626,22.626,0,0,0,7.813-4.642,22.315,22.315,0,0,0,5.322-7.53,25.081,25.081,0,0,0,1.981-10.247ZM114.956,108.2q0,5.1-2.717,7.982a9.207,9.207,0,0,1-7.02,2.887,9.385,9.385,0,0,1-7.077-2.887q-2.776-2.887-2.774-7.982V74.57a11.25,11.25,0,0,1,2.774-8.039,9.3,9.3,0,0,1,7.077-2.944,9.122,9.122,0,0,1,7.02,2.944,11.4,11.4,0,0,1,2.717,8.039Z" transform="translate(-39.68 -50.34)" fill="#003e92" fill-rule="evenodd"/>
</svg>
